<svg width="408" height="138" viewBox="0 0 408 138" fill="none" xmlns="http://www.w3.org/2000/svg">
<path d="M0 5H8.60001V78.9H47.1V86.6H0V5Z" fill="#3F4C4C"/>
<path d="M95.9 86.6H87.5V0H95.9V55.5C95.9 58 95.7 60.5 95.3 62.6L118.9 36.9H128.6L109.5 57.8L131.6 86.6H121.6L103.6 63.3L95.8 71.5V86.6H95.9Z" fill="#3F4C4C"/>
<path d="M164.3 80.4C171.7 80.4 176.8 77.4 180 73.8L185.2 78.8C180.6 84 174 87.4 164.3 87.4C148 87.4 137.4 76.0999 137.4 61.5999C137.4 47.0999 148.6 35.7 163.1 35.7C179 35.7 188.6 47.9 188 64.4H145.8C147 74 153.4 80.4 164.3 80.4ZM179.7 58.0999C179 49.5999 173.6 42.9 163.2 42.9C153.7 42.9 147.4 48.9999 146.1 58.0999H179.7Z" fill="#3F4C4C"/>
<path d="M196 36.9H205.1L215.8 64.2C217.1 67.4 218.1 71.9 218.1 71.9C218.1 71.9 219.1 67.5 220.6 64.2L233.5 36.1H234.6L247.8 64C249.4 67.4 250.4 71.8 250.4 71.8C250.4 71.8 251.4 67.2 252.7 64L263.4 36.8H271.9L251.3 87.5H250.1L236.4 57.8C235 54.8 234 50.5 234 50.5C234 50.5 232.9 54.9 231.6 57.8L217.6 87.7H216.4L196 36.9Z" fill="#3F4C4C"/>
<path d="M282.2 16.7C282.2 13.2 285.1 10.7 288.2 10.7C291.3 10.7 294.2 13.2 294.2 16.7C294.2 20.2 291.3 22.6 288.2 22.6C285.1 22.5 282.2 20.1 282.2 16.7ZM284 36.9H292.4V86.5H284V36.9Z" fill="#3F4C4C"/>
<path d="M305.8 76L312.3 72.3C315.2 77.1 319.5 80.7 326.7 80.7C333.4 80.7 337.3 77.8 337.3 73.3C337.3 67.9 333 66.7 324.3 64.2C316.5 61.9 309.3 58.8 309.3 49.5C309.3 40.9 316.5 36 325.6 36C333.2 36 338.7 39.1 342.1 44L336.3 48.4C333.8 44.9 330.3 42.8 325.5 42.8C320.1 42.8 316.9 45.3 316.9 49.2C316.9 53.9 319.9 55.2 328.7 57.7C337.1 60 345.1 63.3 345.1 72.9C345.1 81.3 339.5 87.6 327 87.6C316.1 87.5 309.1 82.2 305.8 76Z" fill="#3F4C4C"/>
<path d="M383.3 80.4C390.7 80.4 395.8 77.4 399 73.8L404.2 78.8C399.6 84 393 87.4 383.3 87.4C367 87.4 356.4 76.0999 356.4 61.5999C356.4 47.0999 367.6 35.7 382.1 35.7C398 35.7 407.6 47.9 407 64.4H364.8C365.9 74 372.4 80.4 383.3 80.4ZM398.6 58.0999C397.9 49.5999 392.5 42.9 382.1 42.9C372.6 42.9 366.3 48.9999 365 58.0999H398.6Z" fill="#3F4C4C"/>
<path d="M62.1 97.8H69.1V136.8H62.1V97.8Z" fill="#050606"/>
<path d="M95.1 97.8H101.7L101.5 105.8C104 100.2 109.2 96.9 115.5 96.9C124.2 96.9 130.1 102.8 130.1 113V136.8H123.1V114C123.1 107.2 119.9 103.2 113.3 103.2C106 103.2 101.1 107.8 101.1 115.5V136.8H95.1V97.8Z" fill="#050606"/>
<path d="M150.7 98.8H157.8L168 120.9C169.2 123.5 170.1 127.5 170.1 127.5C170.1 127.5 170.9 123.5 172.1 120.9L182.1 98.8H188.8L170.5 137.8H169.3L150.7 98.8Z" fill="#050606"/>
<path d="M230 132.2C235.8 132.2 239.7 129.9 242.3 127.1L246.3 131C242.7 135 237.6 137.7 230 137.7C217 137.7 208.7 128.5 209.1 116.9C209.4 105.9 218.9 97.0001 230 97.4001C241.9 97.8001 249 107.2 248.6 119.7H215.7C216.4 127.2 221.5 132.2 230 132.2ZM242 114.8C241.4 108.2 237.2 102.9 229.1 102.9C221.7 102.9 216.8 107.7 215.7 114.8H242Z" fill="#050606"/>
<path d="M266.8 128.9L271.9 126C274.1 129.7 277.5 132.5 283.1 132.5C288.3 132.5 291.3 130.3 291.3 126.7C291.3 122.5 287.9 121.6 281.2 119.6C275.1 117.8 269.5 115.4 269.5 108.1C269.5 101.4 275.1 97.5 282.2 97.5C288.1 97.5 292.4 99.9 295.1 103.8L290.6 107.3C288.6 104.6 285.9 102.9 282.2 102.9C278 102.9 275.5 104.9 275.5 107.9C275.5 111.5 277.8 112.6 284.7 114.5C291.2 116.3 297.5 118.9 297.5 126.4C297.5 132.9 293.1 137.9 283.4 137.9C274.9 137.9 269.4 133.8 266.8 128.9Z" fill="#050606"/>
<path d="M323.1 127.8V110.6H317.1V105.8H323.1V89.8H329.1V105.8H340.1V110.6H329.1V127.8C329.1 131.9 330.8 133.2 333.4 133.2C335.8 133.2 337.1 132.3 338.3 131.4L341.6 134.7C340 136.1 337.3 137.8 332.8 137.8C327.3 137.8 323.1 135.2 323.1 127.8Z" fill="#050606"/>
<path d="M65.2999 10.7001C62.1999 10.7001 59.2999 13.2001 59.2999 16.7001C59.2999 20.2001 62.1999 22.6001 65.2999 22.6001C68.3999 22.6001 71.2999 20.2001 71.2999 16.7001C71.2999 13.2001 68.3999 10.7001 65.2999 10.7001Z" fill="#3F4C4C"/>
<path d="M61.0999 36.9001V82.9001C62.0999 81.8001 63.6999 81.1001 65.4999 81.1001C67.0999 81.1001 68.5999 81.7001 69.4999 82.6001V37.0002H61.0999V36.9001Z" fill="#3F4C4C"/>
</svg>
